Genre:Horror | Mystery | Thriller 
Language:English
IMDb:http://www.imdb.com/title/tt0795351/
Source:BluRay.x264-BestHD
Subtitles:Romana


Format : MPEG-4
Format profile : Base Media
Codec ID : isom
File size : 2.60 GiB
Duration : 1h 49mn
Overall bit rate : 3 403 Kbps


Video
Format profile : High@L4.1
Format settings, CABAC : Yes
Format settings, ReFrames : 3 frames
Codec ID : avc1
Codec ID/Info : Advanced Video Coding
Duration : 1h 49mn
Bit rate mode : Variable
Bit rate : 3 000 Kbps
Maximum bit rate : 12.9 Mbps
Width : 1 280 pixels
Height : 544 pixels
Display aspect ratio : 2.35:1
Frame rate mode : Constant
Frame rate : 23.976 fps
Color space : YUV
Chroma subsampling : 4:2:0
Bit depth : 8 bits
Scan type : Progressive
Bits/(Pixel*Frame) : 0.180
Stream size : 2.26 GiB (87%)
Writing library : x264 


Audio
ID : 2
Format : AAC
Format/Info : Advanced Audio Codec
Format version : Version 4
Format profile : LC
Format settings, SBR : No
Codec ID : 40
Duration : 1h 49mn
Bit rate mode : Variable
Bit rate : 444 Kbps
Maximum bit rate : 532 Kbps
Channel(s) : 6 channels
Channel positions : Front: L C R, Side: L R, LFE
Sampling rate : 48.0 KHz
Stream size : 348 MiB (13%)


Plot:
A social worker (Zellweger) fights to save a girl from her abusive parents, only to discover that the situation is more dangerous than she ever expected. 

Screens:
 
http://shareimage.org/images/zm8s2l2slcjw1l4442id.png 
http://shareimage.org/images/8y35pvw3d1dp3zjmenm.png 
http://shareimage.org/images/j6sl716y3lrotlssaoy1.png 
http://shareimage.org/images/ix6bov2dneiu5zuvgs57.png 
http://shareimage.org/images/sxafc7xb253qpuoxgx.png

Greets:

INK,CRYS,IMAGINE,LKRG,FXG,3Li,FLAWL3SS,TA,iLLUSiON,ViSiON,DTRG SAFCuk009,LU,TheFalcon007,MYSTiC,PrisM,Noir,WBZ,LAP,Rx,Kingdom,SAFCuk009+Fabreezy,HDLiTE,TWiZTED,ExtraTorrentRG.ELEKTRI4KA,MAGNAT,CM8
And to all the other p2p grps past and present.